HIERARCHY
ROOT hip
{
  OFFSET 0.00112043 5.09927 -9.65472
  CHANNELS 6 Xposition Yposition Zposition Zrotation Xrotation Yrotation
  JOINT abdomen
  {
    OFFSET 0 -1.186 -1.5018
    CHANNELS 3 Zrotation Xrotation Yrotation
    JOINT abdomen2
    {
      OFFSET 0 9.964 0.2134
      CHANNELS 3 Zrotation Xrotation Yrotation
      JOINT chest
      {
        OFFSET 0 13.134 -3.2573
        CHANNELS 3 Zrotation Xrotation Yrotation
        JOINT neck
        {
          OFFSET 0 20.686 -1.6905
          CHANNELS 3 Zrotation Xrotation Yrotation
          JOINT head
          {
            OFFSET 0 7.238 -0.1237
            CHANNELS 3 Zrotation Xrotation Yrotation
            End Site
            {
              OFFSET 0 0 0
            }
          }
        }
        JOINT lCollar
        {
          OFFSET 1.7069 20.075 5.0056
          CHANNELS 3 Zrotation Xrotation Yrotation
          JOINT lShldr
          {
            OFFSET 13.6458 -0.047 -4.849
            CHANNELS 3 Zrotation Xrotation Yrotation
            JOINT lForeArm
            {
              OFFSET 28.3255 -0.9759 2.2888
              CHANNELS 3 Zrotation Xrotation Yrotation
              JOINT lHand
              {
                OFFSET 22.1583 -0.53 10.8316
                CHANNELS 3 Zrotation Xrotation Yrotation
                JOINT lThumb1
                {
                  OFFSET 0.786 0.112 2.5817
                  CHANNELS 3 Zrotation Xrotation Yrotation
                  JOINT lThumb2
                  {
                    OFFSET 0.3601 -0.878 4.2331
                    CHANNELS 3 Zrotation Xrotation Yrotation
                    JOINT lThumb2_End
                    {
                      OFFSET 1.8127 -1.216 2.2227
                      CHANNELS 3 Zrotation Xrotation Yrotation
                      End Site
                      {
                        OFFSET 0.0181 -0.0122 0.0222
                      }
                    }
                  }
                }
                JOINT lCarpal1
                {
                  OFFSET 0.9571 1.114 1.7695
                  CHANNELS 3 Zrotation Xrotation Yrotation
                  JOINT lIndex1
                  {
                    OFFSET 4.1246 0.487 4.1451
                    CHANNELS 3 Zrotation Xrotation Yrotation
                    JOINT lIndex2
                    {
                      OFFSET 3.4052 -1.454 2.7682
                      CHANNELS 3 Zrotation Xrotation Yrotation
                      JOINT lIndex2_End
                      {
                        OFFSET 1.4531 -1.795 1.2713
                        CHANNELS 3 Zrotation Xrotation Yrotation
                        End Site
                        {
                          OFFSET 0.0145 -0.0179 0.0127
                        }
                      }
                    }
                  }
                  JOINT lMid1
                  {
                    OFFSET 5.6954 0.21 2.1184
                    CHANNELS 3 Zrotation Xrotation Yrotation
                    JOINT lMid2
                    {
                      OFFSET 3.9766 -1.54 2.3863
                      CHANNELS 3 Zrotation Xrotation Yrotation
                      JOINT lMid2_End
                      {
                        OFFSET 1.4042 -1.926 1.125
                        CHANNELS 3 Zrotation Xrotation Yrotation
                        End Site
                        {
                          OFFSET 0.014 -0.0193 0.0113
                        }
                      }
                    }
                  }
                }
                JOINT lCarpal2
                {
                  OFFSET 2.0956 0.66 -0.3894
                  CHANNELS 3 Zrotation Xrotation Yrotation
                  JOINT lRing1
                  {
                    OFFSET 5.0395 -0.09 2.4971
                    CHANNELS 3 Zrotation Xrotation Yrotation
                    JOINT lRing2
                    {
                      OFFSET 3.7921 -1.552 1.4806
                      CHANNELS 3 Zrotation Xrotation Yrotation
                      JOINT lRing2_End
                      {
                        OFFSET 1.4655 -1.808 0.9609
                        CHANNELS 3 Zrotation Xrotation Yrotation
                        End Site
                        {
                          OFFSET 0.0147 -0.0181 0.0096
                        }
                      }
                    }
                  }
                  JOINT lPinky1
                  {
                    OFFSET 4.9141 -1.269 0.3591
                    CHANNELS 3 Zrotation Xrotation Yrotation
                    JOINT lPinky2
                    {
                      OFFSET 3.1477 -1.685 0.8462
                      CHANNELS 3 Zrotation Xrotation Yrotation
                      JOINT lPinky2_End
                      {
                        OFFSET 0.8055 -1.585 0.7955
                        CHANNELS 3 Zrotation Xrotation Yrotation
                        End Site
                        {
                          OFFSET 0.0081 -0.0158 0.008
                        }
                      }
                    }
                  }
                }
              }
            }
          }
        }
        JOINT rCollar
        {
          OFFSET -1.7069 20.075 5.0056
          CHANNELS 3 Zrotation Xrotation Yrotation
          JOINT rShldr
          {
            OFFSET -13.6458 -0.047 -4.849
            CHANNELS 3 Zrotation Xrotation Yrotation
            JOINT rForeArm
            {
              OFFSET -28.3255 -0.9759 2.2888
              CHANNELS 3 Zrotation Xrotation Yrotation
              JOINT rHand
              {
                OFFSET -22.1583 -0.53 10.8316
                CHANNELS 3 Zrotation Xrotation Yrotation
                JOINT rThumb1
                {
                  OFFSET -0.786 0.112 2.5817
                  CHANNELS 3 Zrotation Xrotation Yrotation
                  JOINT rThumb2
                  {
                    OFFSET -0.3601 -0.878 4.2331
                    CHANNELS 3 Zrotation Xrotation Yrotation
                    JOINT rThumb2_End
                    {
                      OFFSET -1.8127 -1.216 2.2227
                      CHANNELS 3 Zrotation Xrotation Yrotation
                      End Site
                      {
                        OFFSET -0.0181 -0.0122 0.0222
                      }
                    }
                  }
                }
                JOINT rCarpal1
                {
                  OFFSET -0.9571 1.114 1.7695
                  CHANNELS 3 Zrotation Xrotation Yrotation
                  JOINT rIndex1
                  {
                    OFFSET -4.1246 0.487 4.1451
                    CHANNELS 3 Zrotation Xrotation Yrotation
                    JOINT rIndex2
                    {
                      OFFSET -3.4052 -1.454 2.7682
                      CHANNELS 3 Zrotation Xrotation Yrotation
                      JOINT rIndex2_End
                      {
                        OFFSET -1.4531 -1.795 1.2713
                        CHANNELS 3 Zrotation Xrotation Yrotation
                        End Site
                        {
                          OFFSET -0.0145 -0.018 0.0127
                        }
                      }
                    }
                  }
                  JOINT rMid1
                  {
                    OFFSET -5.6954 0.21 2.1184
                    CHANNELS 3 Zrotation Xrotation Yrotation
                    JOINT rMid2
                    {
                      OFFSET -3.9766 -1.54 2.3863
                      CHANNELS 3 Zrotation Xrotation Yrotation
                      JOINT rMid2_End
                      {
                        OFFSET -1.4042 -1.926 1.125
                        CHANNELS 3 Zrotation Xrotation Yrotation
                        End Site
                        {
                          OFFSET -0.014 -0.0193 0.0113
                        }
                      }
                    }
                  }
                }
                JOINT rCarpal2
                {
                  OFFSET -2.0956 0.66 -0.3894
                  CHANNELS 3 Zrotation Xrotation Yrotation
                  JOINT rRing1
                  {
                    OFFSET -5.0395 -0.09 2.4971
                    CHANNELS 3 Zrotation Xrotation Yrotation
                    JOINT rRing2
                    {
                      OFFSET -3.7921 -1.552 1.4806
                      CHANNELS 3 Zrotation Xrotation Yrotation
                      JOINT rRing2_End
                      {
                        OFFSET -1.4655 -1.808 0.9609
                        CHANNELS 3 Zrotation Xrotation Yrotation
                        End Site
                        {
                          OFFSET -0.0147 -0.0181 0.0096
                        }
                      }
                    }
                  }
                  JOINT rPinky1
                  {
                    OFFSET -4.9141 -1.269 0.3592
                    CHANNELS 3 Zrotation Xrotation Yrotation
                    JOINT rPinky2
                    {
                      OFFSET -3.1477 -1.685 0.8462
                      CHANNELS 3 Zrotation Xrotation Yrotation
                      JOINT rPinky2_End
                      {
                        OFFSET -0.8055 -1.585 0.7955
                        CHANNELS 3 Zrotation Xrotation Yrotation
                        End Site
                        {
                          OFFSET -0.0081 -0.0158 0.008
                        }
                      }
                    }
                  }
                }
              }
            }
          }
        }
      }
    }
  }
  JOINT lThigh
  {
    OFFSET 8.367 -8.2066 0.5982
    CHANNELS 3 Zrotation Xrotation Yrotation
    JOINT lShin
    {
      OFFSET 2.1923 -43.463 -0.4932
      CHANNELS 3 Zrotation Xrotation Yrotation
      JOINT lFoot
      {
        OFFSET 0.7333 -45.8593 -2.6451
        CHANNELS 3 Zrotation Xrotation Yrotation
        End Site
        {
          OFFSET 2.6618 -4.2699 12.3931
        }
      }
    }
  }
  JOINT rThigh
  {
    OFFSET -8.367 -8.2066 0.5982
    CHANNELS 3 Zrotation Xrotation Yrotation
    JOINT rShin
    {
      OFFSET -2.1923 -43.463 -0.4931
      CHANNELS 3 Zrotation Xrotation Yrotation
      JOINT rFoot
      {
        OFFSET -0.7333 -45.8593 -2.6451
        CHANNELS 3 Zrotation Xrotation Yrotation
        End Site
        {
          OFFSET -2.6618 -4.2699 12.3931
        }
      }
    }
  }
}
MOTION
Frames:	4
Frame Time:	0.0333333
0 91.7903 2.51682 0 0 -0 0 0 -0 0 0 -0 0 0 -0 0 0 -0 0 0 -0 0 0 -0 1.66051 0.0835086 5.75766 -0.0175111 0.895433 15.7816 7.95139e-016 -1.98785e-016 -0 5.46658e-016 -3.97569e-016 -0 5.96354e-016 0 -0 3.97569e-016 1.98785e-016 9.54166e-015 1.49089e-016 -3.97569e-016 -0 6.4605e-016 0 3.18055e-015 5.96354e-016 0 3.18055e-015 8.94531e-016 -1.98785e-016 6.36111e-015 6.4605e-016 0 3.18055e-015 5.96354e-016 0 3.18055e-015 8.94531e-016 -1.98785e-016 6.36111e-015 1.49089e-016 -3.97569e-016 -0 6.4605e-016 0 3.18055e-015 5.96354e-016 0 3.18055e-015 8.94531e-016 -1.98785e-016 6.36111e-015 6.4605e-016 0 3.18055e-015 5.96354e-016 0 3.18055e-015 8.94531e-016 -1.98785e-016 6.36111e-015 0 0 -0 -1.4496 0.0636048 -5.0245 -1.74811 1.20616 -16.8394 -1.19271e-015 1.98785e-016 -3.18055e-015 -3.97569e-016 1.98785e-016 -3.18055e-015 -2.98177e-016 1.98785e-016 -3.18055e-015 -2.98177e-016 3.97569e-016 -0 4.96962e-016 0 -6.36111e-015 -9.93923e-017 3.97569e-016 -0 -8.94531e-016 5.96354e-016 -0 -3.97569e-016 3.97569e-016 -0 -9.93923e-017 3.97569e-016 -0 -8.94531e-016 5.96354e-016 -0 -3.97569e-016 3.97569e-016 -0 4.96962e-016 0 -6.36111e-015 -9.93923e-017 3.97569e-016 -0 -8.94531e-016 5.96354e-016 -0 -3.97569e-016 3.97569e-016 -0 -9.93923e-017 3.97569e-016 -0 -8.94531e-016 5.96354e-016 -0 -3.97569e-016 3.97569e-016 -0 -4.66111 -0.998717 0.12318 0.00986924 1.54847 0.176523 4.65186 -0.572283 -0.254274 4.66111 -0.998765 -0.123176 -0.00986867 1.54869 -0.176537 -4.65186 -0.572453 0.25427 
5.09821e-005 71.077 -18.3535 0 26.2936 -0 -1.26104 0.998968 -0.132236 -2.52034 2.00064 -0.242503 -2.52035 2.00063 -0.242503 -2.65601 -14.5379 -1.78276 -6.38064 -6.36726 -2.40762 2.90861 -10.7925 -3.66927 -18.8579 -20.7497 -20.1988 10.2996 29.7022 -18.0562 -14.3689 -12.1411 -3.01096 -1.43125e-014 -3.18055e-015 -0 3.33643e-006 -1.77805e-006 3.7929e-006 -1.59028e-015 3.18055e-015 -0 -6.36111e-015 0 -3.18055e-015 3.18055e-015 3.18055e-015 1.27222e-014 3.33643e-006 -1.77805e-006 3.7929e-006 1.59028e-015 -3.18055e-015 6.36111e-015 3.18055e-015 3.18055e-015 1.27222e-014 3.33643e-006 -1.77805e-006 3.7929e-006 1.59028e-015 -3.18055e-015 6.36111e-015 -6.36111e-015 0 -3.18055e-015 3.18055e-015 3.18055e-015 1.27222e-014 3.33643e-006 -1.77805e-006 3.7929e-006 1.59028e-015 -3.18055e-015 6.36111e-015 3.18055e-015 3.18055e-015 1.27222e-014 3.33643e-006 -1.77805e-006 3.7929e-006 1.59028e-015 -3.18055e-015 6.36111e-015 0.102611 1.43687 9.31791 12.7109 -28.2698 25.8524 -19.5206 19.462 34.3736 11.5634 -7.18861 -11.7074 4.52241e-007 1.03375e-007 -6.29527e-006 3.18055e-015 1.59028e-015 1.27222e-014 1.49565e-006 5.13182e-007 -8.62029e-006 1.59028e-015 3.18055e-015 -6.36111e-015 4.52241e-007 1.03375e-007 -6.29527e-006 6.36111e-015 -6.36111e-015 3.18055e-015 1.49565e-006 5.13182e-007 -8.62029e-006 4.52241e-007 1.03375e-007 -6.29527e-006 6.36111e-015 -6.36111e-015 3.18055e-015 1.49565e-006 5.13182e-007 -8.62029e-006 1.59028e-015 3.18055e-015 -6.36111e-015 4.52241e-007 1.03375e-007 -6.29527e-006 6.36111e-015 -6.36111e-015 3.18055e-015 1.49565e-006 5.13182e-007 -8.62029e-006 4.52241e-007 1.03375e-007 -6.29527e-006 6.36111e-015 -6.36111e-015 3.18055e-015 1.49565e-006 5.13182e-007 -8.62029e-006 9.92468 -34.5471 14.6084 -0.367653 43.8799 7.45265 8.79029 14.7044 0.169851 -9.92516 -34.5224 -14.6089 0.374627 43.8398 -7.45665 -8.80467 14.937 -0.166252 
0.000719932 48.0531 -41.1342 0 52.5872 -0 -2.54815 1.96933 -0.123259 -5.09658 3.94223 -0.158867 -5.09658 3.94224 -0.158868 -6.3351 -29.0321 -3.94805 -13.308 -12.7005 -4.90584 4.34484 -21.4487 -7.74813 -57.2321 -28.3755 -52.4729 45.6918 27.9773 -60.0147 -30.4667 -23.6377 -6.98645 -4.42648e-007 6.30331e-007 3.6829e-007 -4.42648e-007 6.30331e-007 3.6829e-007 -4.42648e-007 6.30331e-007 3.6829e-007 0 1.59028e-015 -0 -4.42648e-007 6.30331e-007 3.6829e-007 -4.42648e-007 6.30331e-007 3.6829e-007 -4.42648e-007 6.30332e-007 3.6829e-007 -4.42648e-007 6.30331e-007 3.6829e-007 -4.42648e-007 6.30331e-007 3.6829e-007 -4.42648e-007 6.30332e-007 3.6829e-007 0 1.59028e-015 -0 -4.42648e-007 6.30331e-007 3.6829e-007 -4.42648e-007 6.30331e-007 3.6829e-007 -4.42648e-007 6.30332e-007 3.6829e-007 -4.42648e-007 6.30331e-007 3.6829e-007 -4.42648e-007 6.30331e-007 3.6829e-007 -4.42648e-007 6.30332e-007 3.6829e-007 -0.254379 2.75947 18.6523 54.1849 -31.8662 67.2023 -48.1887 -6.87558 71.3647 18.3761 -14.8541 -24.2141 1.14591e-006 1.20089e-006 -3.9892e-007 3.18055e-015 1.59028e-015 -0 2.86478e-007 3.00223e-007 -9.973e-008 3.18055e-015 6.75868e-015 -0 1.14591e-006 1.20089e-006 -3.9892e-007 3.18055e-015 -7.95139e-016 7.95139e-016 2.86478e-007 3.00223e-007 -9.973e-008 1.14591e-006 1.20089e-006 -3.9892e-007 3.18055e-015 -7.95139e-016 7.95139e-016 2.86478e-007 3.00223e-007 -9.973e-008 3.18055e-015 6.75868e-015 -0 1.14591e-006 1.20089e-006 -3.9892e-007 3.18055e-015 -7.95139e-016 7.95139e-016 2.86478e-007 3.00223e-007 -9.973e-008 1.14591e-006 1.20089e-006 -3.9892e-007 3.18055e-015 -7.95139e-016 7.95139e-016 2.86478e-007 3.00223e-007 -9.973e-008 56.3086 -60.309 53.2963 -65.0937 82.8396 74.5887 11.2213 29.3955 3.4732 -56.2461 -60.27 -53.2332 64.5388 82.8161 -74.0228 -11.2191 29.8555 -3.48427 
0.00184123 31.1043 -58.9397 0 70.9928 -0 -3.45882 2.6487 -0.0294481 -6.92739 5.2943 0.101486 -6.92739 5.29433 0.101492 -9.76926 -39.1648 -6.02052 -18.4935 -17.0129 -6.73194 4.3055 -28.7782 -11.0548 -86.4523 -21.3817 -72.103 64.3717 9.92042 -72.6224 -43.0038 -31.3258 -10.5532 -1.59028e-015 7.95139e-016 -0 -0 0 3.18055e-015 0 1.59028e-015 -0 -1.59028e-015 7.95139e-016 -0 -0 0 3.18055e-015 0 1.59028e-015 -0 1.59028e-015 2.38542e-015 6.36111e-015 -0 0 3.18055e-015 0 1.59028e-015 -0 1.59028e-015 2.38542e-015 6.36111e-015 -1.59028e-015 7.95139e-016 -0 -0 0 3.18055e-015 0 1.59028e-015 -0 1.59028e-015 2.38542e-015 6.36111e-015 -0 0 3.18055e-015 0 1.59028e-015 -0 1.59028e-015 2.38542e-015 6.36111e-015 -0.762557 3.50146 25.1802 80.1464 -16.7842 83.584 -63.9665 -39.1048 70.4054 20.0695 -19.7269 -33.6431 2.89791e-015 1.20203e-015 -3.18055e-015 6.59615e-006 -4.73091e-007 -3.2113e-006 -9.73734e-016 -1.82711e-015 6.36111e-015 1.30763e-015 4.12323e-016 -3.18055e-015 -2.79541e-016 8.17424e-015 1.27222e-014 6.59615e-006 -4.73091e-007 -3.2113e-006 -4.15895e-015 -4.39423e-015 -0 -2.79541e-016 8.17424e-015 1.27222e-014 6.59615e-006 -4.73091e-007 -3.2113e-006 -4.15895e-015 -4.39423e-015 -0 1.30763e-015 4.12323e-016 -3.18055e-015 -2.79541e-016 8.17424e-015 1.27222e-014 6.59615e-006 -4.73091e-007 -3.2113e-006 -4.15895e-015 -4.39423e-015 -0 -2.79541e-016 8.17424e-015 1.27222e-014 6.59615e-006 -4.73091e-007 -3.2113e-006 -4.15895e-015 -4.39423e-015 -0 114.729 -58.212 103.019 -155.931 60.6083 166.981 12.0749 40.294 5.76998 -114.595 -58.2158 -102.881 155.909 60.7009 -166.944 -12.0345 40.9029 -5.80858 
